<?xml version="1.0" encoding="UTF-8" standalone="no"?><!-- Generator: Gravit.io --><svg xmlns="http://www.w3.org/2000/svg" xmlns:xlink="http://www.w3.org/1999/xlink" style="isolation:isolate" viewBox="0 0 10000 10000" width="10000pt" height="10000pt"><defs><clipPath id="_clipPath_wImqiNBvNu1bucS0QQ1iVN7eHwoKScFG"><rect width="10000" height="10000"/></clipPath></defs><g clip-path="url(#_clipPath_wImqiNBvNu1bucS0QQ1iVN7eHwoKScFG)"><g style="isolation:isolate"><path d=" M 4529.5 4833.5 L 4609.5 4872.5 L 4600.5 5000.5 L 4423.5 4988.5 L 4324.5 5003.5 L 4415.5 4842.5 L 4529.5 4833.5 Z " fill="rgb(216,181,143)"/></g><g style="isolation:isolate"><path d=" M 4594.5 5000.5 L 4606.5 4868.5 L 4947.5 4732.5 L 5628.5 4851.5 L 5675.5 5203.5 L 5232.28 5200.396 L 4979 5229 L 4782.5 5143.5 L 4594.5 5000.5 Z " fill="rgb(225,180,84)"/><g style="isolation:isolate"><path d=" M 4843.102 4926.479 L 4870.539 4943.534 L 4912.806 4946.5 L 4953.589 4937.602 L 4960.263 4922.771 L 4922.445 4912.39 L 4872.022 4913.873 L 4843.102 4926.479 Z " fill="rgb(85,107,58)"/><path d=" M 4878.695 4922.771 L 4906.132 4920.547 L 4929.861 4924.254 L 4934.31 4929.445 L 4926.895 4934.636 L 4903.166 4937.602 L 4875.729 4929.445 L 4878.695 4922.771 Z " fill="rgb(76,116,136)"/><g style="isolation:isolate"><path d=" M 4908.999 4891.642 L 4907.595 4905.007 L 4906.878 4916.839 L 4901.858 4916.839 L 4902.575 4905.007 L 4904.338 4890.925 L 4907.595 4878.189 L 4911.457 4879.665 L 4908.999 4891.642 Z " fill="rgb(85,61,8)"/><path d=" M 4909.761 4880.591 L 4901.248 4884.779 L 4893.514 4891.642 L 4896.43 4880.547 L 4901.926 4876.555 L 4892.043 4875.314 L 4882.294 4879.797 L 4888.568 4870.864 L 4903.992 4868.697 L 4898.717 4864.631 L 4888.568 4863.449 L 4897.975 4859 L 4912.968 4864.631 L 4925.215 4866.415 L 4932.827 4876.555 L 4923.187 4872.764 L 4917.062 4873.496 L 4925.215 4880.087 L 4927.379 4890.658 L 4917.158 4882.535 L 4909.761 4880.591 Z " fill="rgb(77,121,36)"/></g><g style="isolation:isolate"><path d=" M 4952.46 4903.882 L 4948.872 4919.408 L 4948.039 4933.153 L 4942.208 4933.153 L 4943.041 4919.408 L 4947.045 4903.049 L 4955.05 4887.777 L 4959.632 4891.109 L 4952.46 4903.882 Z " fill="rgb(85,61,8)"/><path d=" M 4955.933 4892.186 L 4962.829 4900.189 L 4967.758 4910.594 L 4969.611 4897.956 L 4965.72 4891.469 L 4977.523 4895.35 L 4984.418 4903.353 L 4982.662 4889.649 L 4967.032 4882.517 L 4976.325 4879.763 L 4986.958 4882.517 L 4978.801 4872.347 L 4959.611 4874.437 L 4947.904 4869.903 L 4929.119 4876.96 L 4945.089 4878.097 L 4951.549 4881.733 L 4940.323 4884.928 L 4933.495 4894.814 L 4947.508 4890.951 L 4955.933 4892.186 Z " fill="rgb(77,121,36)"/></g><g style="isolation:isolate"><path d=" M 4853.165 4900.892 L 4856.884 4916.985 L 4857.747 4931.231 L 4863.791 4931.231 L 4862.927 4916.985 L 4858.777 4900.028 L 4850.48 4884.199 L 4845.731 4887.653 L 4853.165 4900.892 Z " fill="rgb(85,61,8)"/><path d=" M 4849.565 4888.77 L 4842.418 4897.065 L 4837.308 4907.849 L 4835.389 4894.75 L 4839.421 4888.026 L 4827.188 4892.049 L 4820.041 4900.344 L 4821.862 4886.14 L 4838.061 4878.748 L 4828.429 4873.894 L 4819.01 4874.293 L 4829.107 4867.104 L 4845.754 4870.373 L 4857.887 4865.674 L 4877.357 4872.989 L 4860.805 4874.166 L 4854.109 4877.935 L 4865.745 4881.247 L 4872.822 4891.494 L 4858.297 4887.49 L 4849.565 4888.77 Z " fill="rgb(77,121,36)"/></g></g><g style="isolation:isolate"><g style="isolation:isolate"><path d=" M 5204.903 4960.848 L 5207.289 4972.543 L 5173.395 4972.543 L 5175.782 4960.848 L 5204.903 4960.848 Z " fill="rgb(130,116,88)"/><path d=" M 5207.289 4961.536 L 5196.263 4957.018 L 5189.321 4952.5 L 5182.787 4957.018 L 5173.395 4961.536 L 5207.289 4961.536 Z " fill="rgb(162,145,109)"/><path d=" M 5185.502 4972.543 L 5183.58 4962.086 L 5179.735 4972.543 L 5185.502 4972.543 Z " fill="rgb(49,44,33)"/></g><g style="isolation:isolate"><path d=" M 5215.761 4980.079 L 5218.5 4993.5 L 5179.605 4993.5 L 5182.344 4980.079 L 5215.761 4980.079 Z " fill="rgb(130,116,88)"/><path d=" M 5218.5 4980.868 L 5205.847 4975.684 L 5197.881 4970.5 L 5190.383 4975.684 L 5179.605 4980.868 L 5218.5 4980.868 Z " fill="rgb(162,145,109)"/><path d=" M 5193.499 4993.5 L 5191.293 4981.5 L 5186.881 4993.5 L 5193.499 4993.5 Z " fill="rgb(49,44,33)"/></g><g style="isolation:isolate"><path d=" M 5111.725 4974.122 L 5108 4987.543 L 5160.895 4987.543 L 5157.17 4974.122 L 5111.725 4974.122 Z " fill="rgb(0,0,255)"/><path d=" M 5108 4974.912 L 5125.207 4966.228 L 5136.041 4957.543 L 5146.237 4966.228 L 5160.895 4974.912 L 5108 4974.912 Z " fill="rgb(74,134,232)"/><path d=" M 5142 4987.543 L 5145 4975.543 L 5151 4987.543 L 5142 4987.543 Z " fill="rgb(49,44,33)"/></g></g><g style="isolation:isolate"><path d=" M 5302.433 4920.5 L 5210.5 4896.5 L 5321.5 4820.5 L 5400.5 4896.5 L 5302.433 4920.5 Z " fill="rgb(142,135,122)" vector-effect="non-scaling-stroke" stroke-width="0.128" stroke="rgb(199,195,189)" stroke-linejoin="miter" stroke-linecap="square" stroke-miterlimit="3"/><path d=" M 5367.438 4956.5 L 5259.3 4951.5 L 5202.5 4933.5 L 5255.5 4848.5 L 5295.346 4891.675 L 5367.438 4843.5 L 5445.5 4925.5 L 5367.438 4956.5 Z " fill="rgb(142,135,122)" vector-effect="non-scaling-stroke" stroke-width="0.128" stroke="rgb(199,195,189)" stroke-linejoin="miter" stroke-linecap="square" stroke-miterlimit="3"/><path d=" M 5293.433 4989 L 5208.5 4965 L 5247.5 4890 L 5328.5 4914 L 5367.438 4870 L 5455.5 4965 L 5293.433 4989 Z " fill="rgb(142,135,122)" vector-effect="non-scaling-stroke" stroke-width="0.128" stroke="rgb(199,195,189)" stroke-linejoin="miter" stroke-linecap="square" stroke-miterlimit="3"/><path d=" M 5353.524 5020.5 L 5276.25 5028.5 L 5208.5 5002.5 L 5273.25 4926.5 L 5318.25 4960.845 L 5351.274 4929.5 L 5387.5 4949.5 L 5410.5 4933.5 L 5455.5 4993.5 L 5353.524 5020.5 Z " fill="rgb(142,135,122)" vector-effect="non-scaling-stroke" stroke-width="0.128" stroke="rgb(199,195,189)" stroke-linejoin="miter" stroke-linecap="square" stroke-miterlimit="3"/><g style="isolation:isolate"><path d=" M 5351.274 5038.5 L 5274 5046.5 L 5219 5027.5 L 5271 4944.5 L 5316 4978.845 L 5381.5 4971.5 L 5440.5 5018.5 L 5351.274 5038.5 Z " fill="rgb(142,135,122)" vector-effect="non-scaling-stroke" stroke-width="0.128" stroke="rgb(199,195,189)" stroke-linejoin="miter" stroke-linecap="square" stroke-miterlimit="3"/></g><path d=" M 5293.5 5068.5 L 5227.5 5050.5 L 5281.5 4977.5 L 5391.5 5050.5 L 5293.5 5068.5 Z " fill="rgb(142,135,122)" vector-effect="non-scaling-stroke" stroke-width="0.128" stroke="rgb(199,195,189)" stroke-linejoin="miter" stroke-linecap="square" stroke-miterlimit="3"/><g style="isolation:isolate"><path d=" M 5376.5 5037.5 L 5376.5 5035.5 L 5377.778 5034.5 L 5379.5 5035.5 L 5376.5 5037.5 Z " fill="rgb(0,0,0)" fill-opacity="0.36"/><path d=" M 5383.5 5039.5 L 5383.5 5037.5 L 5384.5 5036.5 L 5385.5 5037.5 L 5385.5 5038.5 L 5383.5 5039.5 Z " fill="rgb(0,0,0)" fill-opacity="0.36"/><path d=" M 5390.5 5036 L 5390.5 5034.333 L 5391.565 5033.5 L 5393 5035.167 L 5390.5 5036 Z " fill="rgb(0,0,0)" fill-opacity="0.36"/></g></g><g style="isolation:isolate"/><g style="isolation:isolate"><circle vector-effect="non-scaling-stroke" cx="5070.5" cy="4991" r="5" fill="rgb(192,192,192)" fill-opacity="0.8"/><circle vector-effect="non-scaling-stroke" cx="4990.5" cy="4960.5" r="5" fill="rgb(192,192,192)" fill-opacity="0.8"/><circle vector-effect="non-scaling-stroke" cx="4930.5" cy="5031.5" r="5" fill="rgb(192,192,192)" fill-opacity="0.8"/><circle vector-effect="non-scaling-stroke" cx="5172.5" cy="4904.5" r="5" fill="rgb(192,192,192)" fill-opacity="0.8"/><circle vector-effect="non-scaling-stroke" cx="5065.5" cy="4869.5" r="5" fill="rgb(192,192,192)" fill-opacity="0.8"/><circle vector-effect="non-scaling-stroke" cx="5162.5" cy="4810.5" r="5" fill="rgb(192,192,192)" fill-opacity="0.8"/><circle vector-effect="non-scaling-stroke" cx="5033.5" cy="4781.5" r="5" fill="rgb(192,192,192)" fill-opacity="0.8"/><circle vector-effect="non-scaling-stroke" cx="5295.5" cy="4824.5" r="5" fill="rgb(192,192,192)" fill-opacity="0.8"/><circle vector-effect="non-scaling-stroke" cx="4959.5" cy="4838.5" r="5" fill="rgb(192,192,192)" fill-opacity="0.8"/><circle vector-effect="non-scaling-stroke" cx="4846.5" cy="4815.5" r="5" fill="rgb(192,192,192)" fill-opacity="0.8"/><circle vector-effect="non-scaling-stroke" cx="4773.5" cy="4928.5" r="5" fill="rgb(192,192,192)" fill-opacity="0.8"/><circle vector-effect="non-scaling-stroke" cx="4675.5" cy="4955.5" r="5" fill="rgb(192,192,192)" fill-opacity="0.8"/><circle vector-effect="non-scaling-stroke" cx="4541.5" cy="4928.5" r="5" fill="rgb(192,192,192)" fill-opacity="0.8"/><circle vector-effect="non-scaling-stroke" cx="4735.5" cy="4851.5" r="5" fill="rgb(192,192,192)" fill-opacity="0.8"/><circle vector-effect="non-scaling-stroke" cx="4810.5" cy="5016.5" r="5" fill="rgb(192,192,192)" fill-opacity="0.8"/><circle vector-effect="non-scaling-stroke" cx="4743.5" cy="5078.5" r="5" fill="rgb(192,192,192)" fill-opacity="0.8"/><circle vector-effect="non-scaling-stroke" cx="4898.5" cy="4942.5" r="5" fill="rgb(192,192,192)" fill-opacity="0.8"/><circle vector-effect="non-scaling-stroke" cx="5164.5" cy="5006.5" r="5" fill="rgb(192,192,192)" fill-opacity="0.8"/><circle vector-effect="non-scaling-stroke" cx="5118.5" cy="5141.5" r="5" fill="rgb(192,192,192)" fill-opacity="0.8"/><circle vector-effect="non-scaling-stroke" cx="5047.5" cy="5056.5" r="5" fill="rgb(192,192,192)" fill-opacity="0.8"/><circle vector-effect="non-scaling-stroke" cx="5000.5" cy="5151.5" r="5" fill="rgb(192,192,192)" fill-opacity="0.8"/><circle vector-effect="non-scaling-stroke" cx="4888.5" cy="5125.5" r="5" fill="rgb(192,192,192)" fill-opacity="0.8"/><circle vector-effect="non-scaling-stroke" cx="5214.5" cy="5099.5" r="5" fill="rgb(192,192,192)" fill-opacity="0.8"/><circle vector-effect="non-scaling-stroke" cx="5358.5" cy="5131.5" r="5" fill="rgb(192,192,192)" fill-opacity="0.8"/><circle vector-effect="non-scaling-stroke" cx="5396.5" cy="5041.5" r="5" fill="rgb(192,192,192)" fill-opacity="0.8"/><circle vector-effect="non-scaling-stroke" cx="5468.5" cy="5068.5" r="5" fill="rgb(192,192,192)" fill-opacity="0.8"/><circle vector-effect="non-scaling-stroke" cx="5515.5" cy="4965.5" r="5" fill="rgb(192,192,192)" fill-opacity="0.8"/><circle vector-effect="non-scaling-stroke" cx="5439.5" cy="4856.5" r="5" fill="rgb(192,192,192)" fill-opacity="0.8"/><g clip-path="url(#_clipPath_YBj1hyn9zHYmnfHAGlm6iJQU5G7sf8Wg)"><text transform="matrix(1,0,0,1,5334,5025.656)" style="font-family:'Open Sans';font-weight:400;font-size:8px;font-style:normal;font-variant-ligatures:none;fill:#000000;stroke:none;">place: mentoran-cave-entrance</text></g><defs><clipPath id="_clipPath_YBj1hyn9zHYmnfHAGlm6iJQU5G7sf8Wg"><rect x="0" y="0" width="119" height="10.895" transform="matrix(1,0,0,1,5334,5017.105)"/></clipPath></defs><g clip-path="url(#_clipPath_wq3rOiBLfRXiR2FhP5brO4j0ChXHkg24)"><text transform="matrix(1,0,0,1,5130,5024.604)" style="font-family:'Open Sans';font-weight:400;font-size:8px;font-style:normal;font-variant-ligatures:none;fill:#000000;stroke:none;">place: player-start</text></g><defs><clipPath id="_clipPath_wq3rOiBLfRXiR2FhP5brO4j0ChXHkg24"><rect x="0" y="0" width="69" height="10.895" transform="matrix(1,0,0,1,5130,5016.053)"/></clipPath></defs></g></g><g style="isolation:isolate"><path d=" M -1583.2 -30 L 43 -30 L -66.631 -1234.931 L -1370.027 -1234.931 L -1583.2 -30 Z " fill="rgb(47,47,47)"/><path d=" M -879.303 -737.966 L -960.177 -668.021 L -918.647 -549.989 L -821.38 -502.722 L -643.239 -502.722 L -540.507 -573.759 L -570.143 -636.102 L -585.316 -668.021 L -735.042 -758.731 L -879.303 -737.966 Z " fill="rgb(64,64,64)"/><path d=" M -637.361 -670.844 L -721.83 -669.103 L -736.634 -597.696 L -680.031 -534.998 L -586.854 -567.218 L -560.654 -615.983 L -570.006 -636.09 L -637.361 -670.844 Z " fill="rgb(255,255,255)" fill-opacity="0.04"/><path d=" M -610.916 -649.074 L -659.327 -646.526 L -675.677 -610.176 L -636.396 -580.28 L -586.074 -593.657 L -560.693 -615.992 L -570.039 -636.127 L -610.916 -649.074 Z " fill="rgb(255,255,255)" fill-opacity="0.04"/><path d=" M -570.147 -636.125 L -566.826 -636.012 L -561.772 -630.453 L -558.989 -620.337 L -560.689 -615.97 L -570.147 -636.125 Z " fill="rgb(217,202,157)"/><path d=" M -907.183 -713.839 L -908.828 -725.877 L -892.374 -726.7 L -907.183 -713.839 Z " fill="rgb(29,57,71)"/><path d=" M -866.869 -722.586 L -850.71 -728.318 L -838.518 -710.901 L -880.856 -688.854 L -907.183 -713.839 L -892.374 -726.7 L -866.869 -722.586 Z " fill="rgb(84,163,202)"/><g style="isolation:isolate"><circle vector-effect="non-scaling-stroke" cx="-574.8016923632027" cy="-624.681806201196" r="4.113628579286569" fill="rgb(192,192,192)" fill-opacity="0.8"/><circle vector-effect="non-scaling-stroke" cx="-826.5557614155409" cy="-637.0226919390557" r="4.113628579286569" fill="rgb(192,192,192)" fill-opacity="0.8"/><circle vector-effect="non-scaling-stroke" cx="-913.1136285792865" cy="-657.1136285792866" r="4.113628579286569" fill="rgb(192,192,192)" fill-opacity="0.8"/><circle vector-effect="non-scaling-stroke" cx="-759.9149784310986" cy="-536.650154604463" r="4.113628579286569" fill="rgb(192,192,192)" fill-opacity="0.8"/><circle vector-effect="non-scaling-stroke" cx="-900.6010758426994" cy="-560.509200364326" r="4.113628579286569" fill="rgb(192,192,192)" fill-opacity="0.8"/><circle vector-effect="non-scaling-stroke" cx="-688.3378411515124" cy="-609.0500175999074" r="4.113628579286569" fill="rgb(192,192,192)" fill-opacity="0.8"/><circle vector-effect="non-scaling-stroke" cx="-702.3241783210868" cy="-685.563509174637" r="4.113628579286569" fill="rgb(192,192,192)" fill-opacity="0.8"/><circle vector-effect="non-scaling-stroke" cx="-803.5194413715361" cy="-720.1179892406444" r="4.113628579286569" fill="rgb(192,192,192)" fill-opacity="0.8"/><circle vector-effect="non-scaling-stroke" cx="-652.1379096537904" cy="-536.650154604463" r="4.113628579286569" fill="rgb(192,192,192)" fill-opacity="0.8"/><g clip-path="url(#_clipPath_rdATXNfu9rIRh2NeVicW1QKL5kt1ALKG)"><text transform="matrix(0.871,0,0,0.871,-612.951,-609.455)" style="font-family:'Open Sans';font-weight:400;font-size:7px;font-style:normal;font-variant-ligatures:none;fill:#000000;stroke:none;">place: mentoran-cave-exit</text></g><defs><clipPath id="_clipPath_rdATXNfu9rIRh2NeVicW1QKL5kt1ALKG"><rect x="0" y="0" width="88" height="14.158" transform="matrix(0.871,0,0,0.871,-612.951,-615.97)"/></clipPath></defs></g></g></g></svg>